# AST/ASF file generated using VICON BodyLanguage
# -----------------------------------------------
:version 1.10
:name VICON
:units
  mass 1.0
  length 0.45
  angle deg
:documentation
   .ast/.asf automatically generated from VICON data using
   VICON BodyBuilder and BodyLanguage model FoxedUp or BRILLIANT.MOD
:root
   order TX TY TZ RX RY RZ
   axis XYZ
   position 0 0 0  
   orientation 0 0 0 
:bonedata
  begin
     id 1 
     name lhipjoint
     direction 0.541323 -0.757556 0.364798 
     length 2.47576 
     axis 0 0 0  XYZ
  end
  begin
     id 2 
     name lfemur
     direction 0.34202 -0.939693 0  
     length 7.46493  
     axis 0 0 20  XYZ
    dof rx ry rz
    limits (-160.0 20.0)
           (-70.0 70.0)
           (-60.0 70.0)
  end
  begin
     id 3 
     name ltibia
     direction 0.34202 -0.939693 0   
     length 7.73805   
     axis 0 0 20   XYZ
    dof rx
    limits (-10.0 170.0)
  end
  begin
     id 4 
     name lfoot
     direction 0.107174 -0.294458 0.949636   
     length 2.25864   
     axis -90 7.62852e-016 20   XYZ
    dof rx rz
    limits (-45.0 90.0)
           (-70.0 20.0)
  end
  begin
     id 5 
     name ltoes
     direction 1.53606e-011 -4.21934e-011 1   
     length 1.12451   
     axis -90 7.62852e-016 20   XYZ
    dof rx
    limits (-90.0 20.0)
  end
  begin
     id 6 
     name rhipjoint
     direction -0.524745 -0.766967 0.36933   
     length 2.44538  
     axis 0 0 0  XYZ 
  end
  begin
     id 7 
     name rfemur
     direction -0.34202 -0.939693 0   
     length 7.61604   
     axis 0 0 -20   XYZ
    dof rx ry rz
    limits (-160.0 20.0)
           (-70.0 70.0)
           (-70.0 60.0)
  end
  begin
     id 8 
     name rtibia
     direction -0.34202 -0.939693 0   
     length 7.61056   
     axis 0 0 -20   XYZ
    dof rx
    limits (-10.0 170.0)
 end
 begin
     id 9 
     name rfoot
     direction -0.12616 -0.346623 0.929482   
     length 2.46372  
     axis -90 -7.62852e-016 -20   XYZ
    dof rx rz
    limits (-45.0 90.0)
           (-20.0 70.0)
  end
  begin
     id 10 
     name rtoes
     direction -1.53531e-011 -4.22004e-011 1   
     length 1.21611   
     axis -90 -7.62852e-016 -20   XYZ
    dof rx
    limits (-90.0 20.0)
  end
  begin
     id 11 
     name lowerback
     direction -0.000778023 0.997293 -0.0735223   
     length 2.06139   
     axis 0 0 0   XYZ
    dof rx ry rz
    limits (-20.0 45.0)
           (-30.0 30.0)
           (-30.0 30.0)
  end
  begin
     id 12 
     name upperback
     direction 0.0222598 0.999722 -0.0078355   
     length 2.06383   
     axis 0 0 0   XYZ
    dof rx ry rz
    limits (-20.0 45.0)
           (-30.0 30.0)
           (-30.0 30.0)
  end
  begin
     id 13 
     name thorax
     direction 0.0219654 0.999405 0.0265994   
     length 2.07163   
     axis 0 0 0   XYZ
    dof rx ry rz
    limits (-20.0 45.0)
           (-30.0 30.0)
           (-30.0 30.0)
  end
  begin
     id 14 
     name lowerneck
     direction 0.0213282 0.988147 0.15202   
     length 1.75969   
     axis 0 0 0   XYZ
    dof rx ry rz
    limits (-20.0 45.0)
           (-30.0 30.0)
           (-30.0 30.0)
  end
  begin
     id 15 
     name upperneck
     direction -0.0546456 0.982624 -0.177379   
     length 1.79244   
     axis 0 0 0   XYZ
    dof rx ry rz
    limits (-20.0 45.0)
           (-30.0 30.0)
           (-30.0 30.0)
  end
  begin
     id 16
     name head
     direction -0.0199987 0.996855 -0.076686  
     length 1.80555  
     axis 0 0 0   XYZ
    dof rx ry rz
    limits (-20.0 45.0)
           (-30.0 30.0)
           (-30.0 30.0)
  end
  begin
     id 17 
     name lclavicle
     direction 0.929565 0.363219 -0.063096  
     length 3.55722  
     axis 0 0 0   XYZ
    dof ry rz
    limits (-20.0 10.0)
           (0.0 20.0)
  end
  begin
     id 18 
     name lhumerus
     direction 1 -4.48993e-011 -2.36203e-027   
     length 4.92785   
     axis 180 -30 -90   XYZ
    dof rx ry rz
    limits (-60.0 90.0)
           (-90.0 90.0)
           (-90.0 90.0)
  end
  begin
     id 19
     name lradius
     direction 1 -4.48947e-011 2.02997e-027   
     length 3.44052   
     axis 180 -30 -90   XYZ
    dof rx
    limits (-10.0 170.0)
  end
  begin
     id 20
     name lwrist
     direction 1 -4.48962e-011 1.45991e-027   
     length 1.72026   
     axis 1.49639e-024 90 90   XYZ
    dof ry
    limits (-180.0 0.0)
 end
  begin
     id 21 
     name lhand
     direction 1 -4.48984e-011 2.91906e-027   
     length 0.654326   
     axis -1.863e-015 90 90   XYZ
    dof rx rz
    limits (-90.0 90.0)
           (-45.0 45.0)
  end
  begin
     id 22 
     name lfingers
     direction 1 -4.48961e-011 5.83968e-027   
     length 0.527534   
     axis -3.72598e-015 90 90   XYZ
    dof rx
    limits (0.0 90.0)
  end
  begin
     id 23
     name lthumb
     direction 0.707107 -6.34963e-011 0.707107   
     length 0.757437   
     axis -90 45 -6.68868e-015   XYZ
    dof rx rz
    limits (-45.0 45.0)
           (-45.0 45.0)
  end
  begin
     id 24 
     name rclavicle
     direction -0.902944 0.422599 -0.0781198   
     length 3.54432  
     axis 0 0 0   XYZ 
    dof ry rz
    limits (-10.0 20.0)
           (-20.0 0.0)
  end
  begin
     id 25 
     name rhumerus
     direction -1 -4.48953e-011 -4.75835e-028  
     length 5.09181   
     axis 180 30 90   XYZ
    dof rx ry rz
    limits (-90.0 60.0)
           (-90.0 90.0)
           (-90.0 90.0)
  end
  begin
     id 26 
     name rradius
     direction -1 -4.48986e-011 -3.25889e-027   
     length 3.49865   
     axis 180 30 90   XYZ
    dof rx
    limits (-10.0 170.0)
  end
  begin
     id 27 
     name rwrist
     direction -1 -4.48963e-011 1.45989e-027   
     length 1.74933   
     axis 1.49639e-024 -90 -90   XYZ
    dof ry
    limits (-180.0 0.0)
  end
  begin
     id 28
     name rhand
     direction -1 -4.49003e-011 2.91844e-027   
     length 0.66641   
     axis -1.863e-015 -90 -90   XYZ
    dof rx rz
    limits (-90.0 90.0)
           (-45.0 45.0)
  end
  begin
     id 29
     name rfingers
     direction -1 -4.48973e-011 5.83886e-027   
     length 0.537277   
     axis -3.72598e-015 -90 -90   XYZ
    dof rx
    limits (0.0 90.0)
  end
  begin
     id 30
     name rthumb
     direction -0.707107 -6.34976e-011 0.707107   
     length 0.771425   
     axis -90 -45 6.68868e-015   XYZ
    dof rx rz
    limits (-45.0 45.0)
           (-45.0 45.0)
  end
:hierarchy
  begin
    root lhipjoint rhipjoint lowerback
    lhipjoint lfemur
    lfemur ltibia
    ltibia lfoot
    lfoot ltoes
    rhipjoint rfemur
    rfemur rtibia
    rtibia rfoot
    rfoot rtoes
    lowerback upperback
    upperback thorax
    thorax lowerneck lclavicle rclavicle
    lowerneck upperneck
    upperneck head
    lclavicle lhumerus
    lhumerus lradius
    lradius lwrist
    lwrist lhand lthumb
    lhand lfingers
    rclavicle rhumerus
    rhumerus rradius
    rradius rwrist
    rwrist rhand rthumb
    rhand rfingers
  end

#!OML:ASF H:\LiuWeirdWalks\Patient Classification 1\Patient 1\Session 1\male.ASF
:FULLY-SPECIFIED
:DEGREES
204
root -0.29983 17.9821 -31.0129 2.48573 7.55492 -1.14363
lowerback 4.7524 -3.3997 2.54236
upperback -1.27447 -4.24826 3.29242
thorax -3.91459 -2.13027 2.32297
lowerneck -23.7306 3.41058 7.92869
upperneck 31.0456 6.1901 -12.2033
head 15.6416 1.8173 -5.35405
rclavicle -7.2457e-014 3.97569e-014
rhumerus -38.0474 -27.7822 -39.5143
rradius 25.8016
rwrist -5.02249
rhand -30.9106 0.083008
rfingers 7.12502
rthumb -4.19682 -29.8554
lclavicle -7.2457e-014 3.97569e-014
lhumerus -40.6001 26.043 51.9298
lradius 31.4267
lwrist 7.32025
lhand -17.8509 -2.26959
lfingers 7.12502
lthumb 8.4142 27.5428
rfemur -6.56734 -0.924586 19.1843
rtibia 27.1926
rfoot -13.288 -22.9736
rtoes -2.73807
lfemur -5.21209 -1.35584 -16.6633
ltibia 23.1759
lfoot -10.4179 18.805
ltoes -7.98812
205
root -0.303964 17.9811 -31.0082 2.47066 7.52306 -1.14327
lowerback 4.73369 -3.40345 2.53167
upperback -1.28144 -4.2532 3.33013
thorax -3.90757 -2.13211 2.36726
lowerneck -23.7114 3.42269 7.94932
upperneck 31.0394 6.2325 -12.2904
head 15.6464 1.82625 -5.38777
rclavicle -1.7344e-014 -1.90833e-014
rhumerus -37.9978 -27.7096 -39.6302
rradius 25.9007
rwrist -5.14019
rhand -30.8831 0.0774586
rfingers 7.12502
rthumb -4.1703 -29.8615
lclavicle -1.7344e-014 -1.90833e-014
lhumerus -40.6174 26.0488 51.8578
lradius 31.5115
lwrist 7.18894
lhand -17.9386 -2.28149
lfingers 7.12502
lthumb 8.32961 27.5343
rfemur -6.54545 -0.922794 19.1959
rtibia 27.205
rfoot -13.3231 -22.9461
rtoes -2.7267
lfemur -5.16975 -1.33809 -16.6507
ltibia 23.1676
lfoot -10.4292 18.8269
ltoes -7.95101
206
root -0.308041 17.9799 -31.0029 2.45049 7.49516 -1.14532
lowerback 4.67944 -3.36241 2.47413
upperback -1.23481 -4.20485 3.37675
thorax -3.82178 -2.10641 2.43724
lowerneck -23.8078 3.35112 7.88506
upperneck 31.0618 6.1592 -12.32
head 15.6675 1.78043 -5.40722
rclavicle -1.01778e-013 5.56597e-014
rhumerus -37.9771 -27.7578 -39.6918
rradius 26.0091
rwrist -5.237
rhand -30.8846 0.0768754
rfingers 7.12502
rthumb -4.17172 -29.862
lclavicle -1.01778e-013 5.56597e-014
lhumerus -40.4538 26.0536 51.9268
lradius 31.5627
lwrist 7.0361
lhand -18.0138 -2.35819
lfingers 7.12502
lthumb 8.25698 27.4605
rfemur -6.51379 -0.92219 19.2111
rtibia 27.2153
rfoot -13.3591 -22.923
rtoes -2.72355
lfemur -5.11896 -1.32511 -16.6351
ltibia 23.1574
lfoot -10.4378 18.8509
ltoes -7.92456
207
root -0.312081 17.9787 -30.9973 2.42914 7.47368 -1.14725
lowerback 4.59452 -3.28804 2.37198
upperback -1.15721 -4.11703 3.43535
thorax -3.68359 -2.0602 2.5378
lowerneck -23.9299 3.23345 7.78619
upperneck 31.0404 6.01723 -12.3284
head 15.661 1.70374 -5.42191
rclavicle -1.94809e-014 1.51076e-014
rhumerus -37.9868 -27.8819 -39.7002
rradius 26.1251
rwrist -5.33371
rhand -30.9138 0.0924611
rfingers 7.12502
rthumb -4.19989 -29.8459
lclavicle -1.94809e-014 1.51076e-014
lhumerus -40.1695 26.0349 52.1161
lradius 31.5972
lwrist 6.90587
lhand -18.085 -2.46436
lfingers 7.12502
lthumb 8.18827 27.357
rfemur -6.47727 -0.921466 19.2267
rtibia 27.2247
rfoot -13.3988 -22.9016
rtoes -2.71873
lfemur -5.06493 -1.32301 -16.6201
ltibia 23.1444
lfoot -10.4455 18.8786
ltoes -7.91049
208
root -0.315925 17.9775 -30.9914 2.40677 7.47437 -1.14314
lowerback 4.48924 -3.20281 2.24737
upperback -1.06071 -4.01757 3.49567
thorax -3.51352 -2.00801 2.64993
lowerneck -24.0533 3.09162 7.67225
upperneck 30.9669 5.83579 -12.3253
head 15.6231 1.61027 -5.43283
rclavicle -8.36386e-014 4.85035e-014
rhumerus -38.0113 -28.0857 -39.6709
rradius 26.2354
rwrist -5.3921
rhand -30.954 0.116272
rfingers 7.12502
rthumb -4.23876 -29.8213
lclavicle -8.36386e-014 4.85035e-014
lhumerus -39.8087 26.0214 52.3672
lradius 31.6079
lwrist 6.79874
lhand -18.1091 -2.63162
lfingers 7.12502
lthumb 8.16502 27.1906
rfemur -6.43424 -0.937073 19.2355
rtibia 27.2357
rfoot -13.4485 -22.882
rtoes -2.70209
lfemur -5.00671 -1.33878 -16.6118
ltibia 23.1243
lfoot -10.4492 18.9035
ltoes -7.91104
209
root -0.319666 17.9765 -30.9857 2.3924 7.48023 -1.13284
lowerback 4.39553 -3.16022 2.16874
upperback -0.999808 -3.97063 3.54079
thorax -3.39031 -1.9831 2.72767
lowerneck -24.0783 3.0219 7.63411
upperneck 30.847 5.74795 -12.3663
head 15.5597 1.56243 -5.45344
rclavicle -5.87906e-014 5.24792e-014
rhumerus -37.9898 -28.1893 -39.725
rradius 26.3354
rwrist -5.43366
rhand -31.0152 0.154061
rfingers 7.12502
rthumb -4.29781 -29.7823
lclavicle -5.87906e-014 5.24792e-014
lhumerus -39.5778 26.0375 52.5126
lradius 31.6201
lwrist 6.71293
lhand -18.083 -2.8393
lfingers 7.12502
lthumb 8.19026 26.982
rfemur -6.39906 -0.959616 19.236
rtibia 27.2489
rfoot -13.5068 -22.8559
rtoes -2.67347
lfemur -4.95552 -1.36091 -16.6111
ltibia 23.0994
lfoot -10.4476 18.9306
ltoes -7.9084
210
root -0.323253 17.9757 -30.9802 2.3866 7.47796 -1.10948
lowerback 4.32873 -3.16378 2.14207
upperback -0.986641 -3.97972 3.56525
thorax -3.33525 -1.98713 2.76335
lowerneck -24.0035 3.03748 7.66496
upperneck 30.7069 5.77441 -12.439
head 15.4853 1.56984 -5.47478
rclavicle -6.31141e-015 3.33958e-014
rhumerus -37.9236 -28.1591 -39.8707
rradius 26.4239
rwrist -5.4459
rhand -31.1085 0.183431
rfingers 7.12502
rthumb -4.38789 -29.7511
lclavicle -6.31141e-015 3.33958e-014
lhumerus -39.5188 26.0693 52.5312
lradius 31.6491
lwrist 6.66611
lhand -18.0139 -3.06349
lfingers 7.12502
lthumb 8.25693 26.7552
rfemur -6.37461 -0.984995 19.2193
rtibia 27.2646
rfoot -13.5649 -22.8183
rtoes -2.63706
lfemur -4.90907 -1.38248 -16.6269
ltibia 23.0702
lfoot -10.4446 18.9644
ltoes -7.90744
211
root -0.32714 17.9753 -30.9757 2.38973 7.45722 -1.09691
lowerback 4.27116 -3.15268 2.11115
upperback -0.980999 -3.96855 3.59675
thorax -3.293 -1.98089 2.80821
lowerneck -23.9388 3.0455 7.69028
upperneck 30.5973 5.78989 -12.4992
head 15.4253 1.57339 -5.49412
rclavicle -7.70291e-015 6.36111e-015
rhumerus -37.8806 -28.1291 -39.9907
rradius 26.5086
rwrist -5.4214
rhand -31.198 0.226435
rfingers 7.12502
rthumb -4.47435 -29.7063
lclavicle -7.70291e-015 6.36111e-015
lhumerus -39.4487 26.0917 52.5756
lradius 31.6674
lwrist 6.62796
lhand -17.9159 -3.26433
lfingers 7.12502
lthumb 8.35145 26.5506
rfemur -6.3699 -0.985885 19.2166
rtibia 27.2817
rfoot -13.6168 -22.7868
rtoes -2.59184
lfemur -4.87689 -1.39247 -16.6302
ltibia 23.0408
lfoot -10.4421 19.0022
ltoes -7.90471
212
root -0.331236 17.9749 -30.9718 2.39839 7.41602 -1.09117
lowerback 4.24599 -3.19261 2.1587
upperback -1.02319 -4.01822 3.60887
thorax -3.32346 -2.00633 2.79808
lowerneck -23.8089 3.1412 7.77535
upperneck 30.5323 5.92834 -12.5809
head 15.3932 1.63513 -5.51172
rclavicle -4.22417e-014 2.78299e-014
rhumerus -37.7784 -27.9315 -40.231
rradius 26.5804
rwrist -5.37595
rhand -31.2947 0.2649
rfingers 7.12502
rthumb -4.56771 -29.6659
lclavicle -4.22417e-014 2.78299e-014
lhumerus -39.5787 26.1269 52.4743
lradius 31.7234
lwrist 6.64986
lhand -17.8221 -3.36198
lfingers 7.12502
lthumb 8.44205 26.4493
rfemur -6.37837 -0.965752 19.2227
rtibia 27.2993
rfoot -13.6622 -22.7591
rtoes -2.5506
lfemur -4.85267 -1.38788 -16.6253
ltibia 23.013
lfoot -10.4415 19.0418
ltoes -7.8963
213
root -0.335491 17.9746 -30.9686 2.40769 7.36459 -1.09201
lowerback 4.22601 -3.20888 2.18572
upperback -1.05433 -4.03741 3.63018
thorax -3.34429 -2.01616 2.80656
lowerneck -23.7136 3.21113 7.84475
upperneck 30.4777 6.02915 -12.6496
head 15.3674 1.67989 -5.52955
rclavicle -2.61402e-014 1.82882e-014
rhumerus -37.7001 -27.7704 -40.4307
rradius 26.65
rwrist -5.32457
rhand -31.3746 0.309144
rfingers 7.12502
rthumb -4.64488 -29.6199
lclavicle -2.61402e-014 1.82882e-014
lhumerus -39.6573 26.1319 52.4461
lradius 31.7831
lwrist 6.70556
lhand -17.7814 -3.33078
lfingers 7.12502
lthumb 8.48134 26.4789
rfemur -6.39322 -0.934346 19.2368
rtibia 27.3161
rfoot -13.6989 -22.7343
rtoes -2.51402
lfemur -4.83435 -1.37828 -16.6128
ltibia 22.9904
lfoot -10.4476 19.0815
ltoes -7.89026
214
root -0.339522 17.9741 -30.9656 2.41334 7.30691 -1.09347
lowerback 4.22351 -3.2381 2.24513
upperback -1.08318 -4.07171 3.63802
thorax -3.37539 -2.03421 2.7853
lowerneck -23.6465 3.29457 7.90875
upperneck 30.4444 6.14799 -12.7041
head 15.3599 1.73268 -5.53842
rclavicle 1.43125e-014 2.06736e-014
rhumerus -37.5887 -27.6147 -40.6672
rradius 26.6989
rwrist -5.23749
rhand -31.4385 0.36716
rfingers 7.12502
rthumb -4.70655 -29.5606
lclavicle 1.43125e-014 2.06736e-014
lhumerus -39.7623 26.1456 52.3924
lradius 31.8513
lwrist 6.7894
lhand -17.7792 -3.20293
lfingers 7.12502
lthumb 8.4834 26.6067
rfemur -6.40703 -0.90705 19.2492
rtibia 27.3325
rfoot -13.7273 -22.7051
rtoes -2.49614
lfemur -4.8136 -1.37097 -16.6016
ltibia 22.972
lfoot -10.4558 19.1272
ltoes -7.88778
